<svg width="161" height="161" viewBox="0 0 161 161" fill="none" xmlns="http://www.w3.org/2000/svg">
<path fill-rule="evenodd" clip-rule="evenodd" d="M79.3344 122.27C102.107 122.27 120.677 103.701 120.677 80.9282C120.677 58.1552 102.107 39.586 79.3344 39.586C56.5614 39.586 37.9922 58.1552 37.9922 80.9282C37.9922 103.701 56.5614 122.27 79.3344 122.27Z" fill="#84C93D" stroke="#231F20" stroke-miterlimit="10"/>
<path fill-rule="evenodd" clip-rule="evenodd" d="M107.508 35.3265L129.001 56.8189C130.476 58.2944 132.898 58.2944 134.374 56.8189L156.646 34.547L129.752 7.68155L107.48 29.9534C106.005 31.4289 106.005 33.851 107.48 35.3265H107.508Z" fill="white" stroke="#231F20" stroke-miterlimit="10"/>
<path d="M131.673 58.6563C130.476 58.6563 129.335 58.183 128.472 57.3478L106.979 35.8555C106.116 35.0203 105.671 33.8788 105.671 32.6817C105.671 31.4846 106.144 30.3432 106.979 29.4801L129.752 6.67932L157.62 34.547L134.847 57.32C134.012 58.183 132.87 58.6285 131.645 58.6285L131.673 58.6563ZM129.752 8.71163L107.982 30.4824C107.397 31.067 107.091 31.8465 107.091 32.6539C107.091 33.4891 107.397 34.2686 107.982 34.8254L129.474 56.3178C130.643 57.487 132.675 57.487 133.845 56.3178L155.616 34.547L129.752 8.68379V8.71163Z" fill="#070707" stroke="#231F20" stroke-miterlimit="10"/>
<path fill-rule="evenodd" clip-rule="evenodd" d="M134.346 6.5958L157.731 29.9813C159.207 31.4568 160.682 34.2408 158.038 35.0481L155.337 35.8833L128.444 8.99003L129.279 6.28957C130.17 3.33854 132.87 5.12029 134.346 6.5958V6.5958Z" fill="white" stroke="#231F20" stroke-miterlimit="10"/>
<path d="M155.114 36.6628L127.664 9.21275L128.611 6.09469C129.168 4.2851 130.337 4.0067 131.005 4.0067C132.592 4.0067 134.235 5.48221 134.847 6.12253L158.232 29.508C159.346 30.6216 160.515 32.459 160.126 33.9902C159.986 34.5748 159.541 35.3822 158.232 35.7441L155.114 36.6907V36.6628ZM129.251 8.79515L155.532 35.076L157.843 34.38C158.622 34.1294 158.734 33.7396 158.761 33.6283C158.956 32.9045 158.288 31.5681 157.23 30.5102L133.845 7.09692C132.815 6.06685 131.701 5.39869 131.005 5.39869C130.81 5.39869 130.309 5.39869 129.975 6.48444L129.279 8.79515H129.251Z" fill="#070707" stroke="#231F20" stroke-miterlimit="10"/>
<path fill-rule="evenodd" clip-rule="evenodd" d="M53.6939 125.89L32.2015 104.397C30.726 102.922 28.3039 102.922 26.8284 104.397L4.55657 126.669L31.422 153.534L53.6939 131.263C55.1694 129.787 55.1694 127.365 53.6939 125.89Z" fill="white" stroke="#231F20" stroke-miterlimit="10"/>
<path d="M31.422 154.537L3.55433 126.641L26.3273 103.868C28.0256 102.17 31.0044 102.17 32.7026 103.868L54.195 125.361C55.9489 127.114 55.9489 129.982 54.195 131.736L31.422 154.509V154.537ZM5.5588 126.641L31.422 152.504L53.1928 130.734C54.3899 129.537 54.3899 127.56 53.1928 126.363L31.7004 104.87C30.5311 103.701 28.4988 103.701 27.3296 104.87L5.5588 126.641V126.641Z" fill="#070707" stroke="#231F20" stroke-miterlimit="10"/>
<path fill-rule="evenodd" clip-rule="evenodd" d="M26.8563 154.62L3.47081 131.235C1.9953 129.759 0.519789 126.975 3.16457 126.168L5.86504 125.333L32.7305 152.198L31.9231 154.899C31.0322 157.85 28.3318 156.068 26.8563 154.592V154.62Z" fill="white" stroke="#231F20" stroke-miterlimit="10"/>
<path d="M30.1971 157.237C28.6102 157.237 26.9676 155.762 26.3552 155.121L2.9697 131.736C1.8561 130.622 0.686829 128.785 1.07659 127.281C1.21579 126.697 1.66122 125.89 2.9697 125.5L6.08776 124.553L33.5657 152.031L32.6191 155.149C32.0623 156.959 30.8931 157.237 30.2249 157.237H30.1971ZM5.67016 126.14L3.35945 126.836C2.5521 127.087 2.46858 127.476 2.44074 127.588C2.24586 128.312 2.91402 129.648 3.97193 130.706L27.3574 154.091C28.3875 155.121 29.5011 155.789 30.1971 155.789C30.3919 155.789 30.8931 155.789 31.2271 154.704L31.9231 152.393L5.67016 126.14Z" fill="#070707" stroke="#231F20" stroke-miterlimit="10"/>
<path fill-rule="evenodd" clip-rule="evenodd" d="M125.883 107.515L104.39 129.008C102.915 130.483 102.915 132.905 104.39 134.381L126.662 156.653L153.528 129.787L131.256 107.515C129.78 106.04 127.358 106.04 125.883 107.515Z" fill="white" stroke="#231F20" stroke-miterlimit="10"/>
<path d="M126.634 157.655L103.861 134.882C102.107 133.128 102.107 130.26 103.861 128.506L125.354 107.014C127.052 105.316 130.031 105.316 131.729 107.014L154.502 129.787L126.634 157.655ZM128.555 107.125C127.72 107.125 126.94 107.46 126.384 108.016L104.891 129.509C103.694 130.706 103.694 132.682 104.891 133.88L126.662 155.65L152.525 129.787L130.755 108.016C130.17 107.432 129.39 107.125 128.583 107.125H128.555Z" fill="#070707" stroke="#231F20" stroke-miterlimit="10"/>
<path fill-rule="evenodd" clip-rule="evenodd" d="M154.613 134.353L131.228 157.738C129.752 159.214 126.968 160.689 126.161 158.045L125.354 155.344L152.219 128.479L154.92 129.314C157.871 130.205 156.089 132.905 154.613 134.381V134.353Z" fill="white" stroke="#231F20" stroke-miterlimit="10"/>
<path d="M127.859 160.216C127.191 160.216 125.994 159.965 125.465 158.267L124.518 155.149L151.996 127.671L155.114 128.618C156.506 129.035 156.98 129.843 157.147 130.427C157.592 132.153 155.866 134.102 155.114 134.854L131.729 158.239C130.782 159.186 129.251 160.216 127.887 160.216H127.859ZM126.133 155.539L126.829 157.85C127.08 158.685 127.525 158.796 127.859 158.796C128.611 158.796 129.78 158.156 130.699 157.237L154.084 133.852C155.254 132.682 155.922 131.457 155.755 130.789C155.671 130.455 155.309 130.177 154.697 129.982L152.386 129.286L126.105 155.567L126.133 155.539Z" fill="#070707" stroke="#231F20" stroke-miterlimit="10"/>
<path fill-rule="evenodd" clip-rule="evenodd" d="M35.3196 53.7008L56.8119 32.2084C58.2875 30.7329 58.2875 28.3109 56.8119 26.8354L34.5679 4.56349L7.67463 31.4568L29.9465 53.7286C31.422 55.2042 33.8441 55.2042 35.3196 53.7286V53.7008Z" fill="white" stroke="#231F20" stroke-miterlimit="10"/>
<path d="M32.647 55.5382C31.4498 55.5382 30.3084 55.065 29.4454 54.2298L6.67239 31.4568L34.5679 3.56126L57.3409 26.3343C58.2039 27.1694 58.6494 28.3109 58.6494 29.508C58.6494 30.7051 58.1761 31.8465 57.3409 32.7096L35.8485 54.2019C35.0133 55.065 33.8719 55.5104 32.6748 55.5104L32.647 55.5382ZM8.67686 31.4568L30.4476 53.2275C31.6169 54.3968 33.6492 54.3968 34.8185 53.2275L56.3108 31.7352C56.8955 31.1505 57.2017 30.371 57.2017 29.5637C57.2017 28.7563 56.8955 27.949 56.3108 27.3922L34.5679 5.56573L8.67686 31.4568Z" fill="#070707" stroke="#231F20" stroke-miterlimit="10"/>
<path fill-rule="evenodd" clip-rule="evenodd" d="M6.58888 26.8632L29.9743 3.47775C31.4498 2.00224 34.2338 0.526724 35.0412 3.17151L35.8764 5.87197L8.9831 32.7653L6.28264 31.9579C3.33162 31.067 5.11336 28.3666 6.58888 26.8911V26.8632Z" fill="white" stroke="#231F20" stroke-miterlimit="10"/>
<path d="M9.17798 33.5448L6.05992 32.5982C4.66793 32.1806 4.19465 31.3733 4.02761 30.7886C3.61001 29.0626 5.30824 27.1138 6.05992 26.3621L29.4732 2.97663C30.4198 2.03007 31.951 1 33.3151 1C33.9833 1 35.1804 1.25056 35.7093 2.97663L36.6559 6.09469L9.17798 33.5448ZM33.343 2.41983C32.5913 2.41983 31.422 3.06015 30.5033 3.97886L7.08999 27.3643C5.92072 28.5336 5.25256 29.7585 5.4196 30.4267C5.50312 30.7608 5.86504 31.0392 6.47752 31.2341L8.78822 31.9301L35.069 5.67709L34.373 3.36639C34.1225 2.53119 33.677 2.41983 33.343 2.41983V2.41983Z" fill="#070707" stroke="#231F20" stroke-miterlimit="10"/>
</svg>
