<svg width="162" height="162" viewBox="0 0 162 162" fill="none" xmlns="http://www.w3.org/2000/svg">
<path fill-rule="evenodd" clip-rule="evenodd" d="M79.7333 122.662C102.506 122.662 121.075 104.093 121.075 81.3202C121.075 58.5472 102.506 39.978 79.7333 39.978C56.9603 39.978 38.3911 58.5472 38.3911 81.3202C38.3911 104.093 56.9603 122.662 79.7333 122.662Z" fill="#FF0000" stroke="#231F20" stroke-miterlimit="10"/>
<path fill-rule="evenodd" clip-rule="evenodd" d="M107.907 35.7185L129.4 57.2109C130.875 58.6864 133.297 58.6864 134.773 57.2109L157.045 34.939L130.151 8.07355L107.879 30.3454C106.404 31.8209 106.404 34.243 107.879 35.7185H107.907Z" fill="white" stroke="#231F20" stroke-miterlimit="10"/>
<path d="M132.072 59.0483C130.875 59.0483 129.734 58.575 128.871 57.7398L107.378 36.2475C106.515 35.4123 106.07 34.2708 106.07 33.0737C106.07 31.8766 106.543 30.7352 107.378 29.8721L130.151 7.07132L158.019 34.939L135.246 57.712C134.411 58.575 133.269 59.0205 132.044 59.0205L132.072 59.0483ZM130.151 9.10363L108.38 30.8744C107.796 31.459 107.49 32.2385 107.49 33.0459C107.49 33.8811 107.796 34.6606 108.38 35.2174L129.873 56.7097C131.042 57.879 133.074 57.879 134.244 56.7097L156.014 34.939L130.151 9.07579V9.10363Z" fill="#070707" stroke="#231F20" stroke-miterlimit="10"/>
<path fill-rule="evenodd" clip-rule="evenodd" d="M134.745 6.9878L158.13 30.3733C159.606 31.8488 161.081 34.6328 158.437 35.4401L155.736 36.2753L128.843 9.38203L129.678 6.68156C130.569 3.73054 133.269 5.51229 134.745 6.9878V6.9878Z" fill="white" stroke="#231F20" stroke-miterlimit="10"/>
<path d="M155.513 37.0548L128.063 9.60475L129.01 6.48668C129.567 4.6771 130.736 4.3987 131.404 4.3987C132.991 4.3987 134.633 5.87421 135.246 6.51452L158.631 29.9C159.745 31.0136 160.914 32.851 160.524 34.3822C160.385 34.9668 159.94 35.7742 158.631 36.1361L155.513 37.0827V37.0548ZM129.65 9.18715L155.931 35.468L158.242 34.772C159.021 34.5214 159.132 34.1316 159.16 34.0203C159.355 33.2964 158.687 31.9601 157.629 30.9022L134.244 7.48892C133.214 6.45884 132.1 5.79069 131.404 5.79069C131.209 5.79069 130.708 5.79069 130.374 6.87644L129.678 9.18715H129.65Z" fill="#070707" stroke="#231F20" stroke-miterlimit="10"/>
<path fill-rule="evenodd" clip-rule="evenodd" d="M54.0928 126.282L32.6004 104.789C31.1249 103.314 28.7029 103.314 27.2274 104.789L4.95549 127.061L31.8209 153.926L54.0928 131.655C55.5683 130.179 55.5683 127.757 54.0928 126.282Z" fill="white" stroke="#231F20" stroke-miterlimit="10"/>
<path d="M31.8209 154.929L3.95326 127.033L26.7262 104.26C28.4245 102.562 31.4033 102.562 33.1016 104.26L54.5939 125.753C56.3478 127.506 56.3478 130.374 54.5939 132.128L31.8209 154.901V154.929ZM5.95773 127.033L31.8209 152.896L53.5917 131.126C54.7888 129.929 54.7888 127.952 53.5917 126.755L32.0993 105.262C30.9301 104.093 28.8978 104.093 27.7285 105.262L5.95773 127.033V127.033Z" fill="#070707" stroke="#231F20" stroke-miterlimit="10"/>
<path fill-rule="evenodd" clip-rule="evenodd" d="M27.2552 155.012L3.86975 131.627C2.39423 130.151 0.918723 127.367 3.56351 126.56L6.26397 125.725L33.1294 152.59L32.3221 155.291C31.4312 158.242 28.7307 156.46 27.2552 154.984V155.012Z" fill="white" stroke="#231F20" stroke-miterlimit="10"/>
<path d="M30.596 157.629C29.0091 157.629 27.3666 156.154 26.7541 155.513L3.36862 132.128C2.25503 131.014 1.08575 129.177 1.47551 127.673C1.61471 127.089 2.06015 126.282 3.36862 125.892L6.48668 124.945L33.9646 152.423L33.018 155.541C32.4613 157.351 31.292 157.629 30.6238 157.629H30.596ZM6.06909 126.532L3.75838 127.228C2.95102 127.479 2.8675 127.868 2.83966 127.98C2.64479 128.704 3.31294 130.04 4.37086 131.098L27.7563 154.483C28.7864 155.513 29.9 156.181 30.596 156.181C30.7909 156.181 31.292 156.181 31.6261 155.096L32.3221 152.785L6.06909 126.532Z" fill="#070707" stroke="#231F20" stroke-miterlimit="10"/>
<path fill-rule="evenodd" clip-rule="evenodd" d="M126.282 107.907L104.789 129.4C103.314 130.875 103.314 133.297 104.789 134.773L127.061 157.045L153.926 130.179L131.655 107.907C130.179 106.432 127.757 106.432 126.282 107.907Z" fill="white" stroke="#231F20" stroke-miterlimit="10"/>
<path d="M127.033 158.047L104.26 135.274C102.506 133.52 102.506 130.652 104.26 128.898L125.753 107.406C127.451 105.708 130.43 105.708 132.128 107.406L154.901 130.179L127.033 158.047ZM128.954 107.517C128.119 107.517 127.339 107.852 126.783 108.408L105.29 129.901C104.093 131.098 104.093 133.074 105.29 134.272L127.061 156.042L152.924 130.179L131.153 108.408C130.569 107.824 129.789 107.517 128.982 107.517H128.954Z" fill="#070707" stroke="#231F20" stroke-miterlimit="10"/>
<path fill-rule="evenodd" clip-rule="evenodd" d="M155.012 134.745L131.627 158.13C130.151 159.606 127.367 161.081 126.56 158.437L125.753 155.736L152.618 128.871L155.318 129.706C158.269 130.597 156.488 133.297 155.012 134.773V134.745Z" fill="white" stroke="#231F20" stroke-miterlimit="10"/>
<path d="M128.258 160.608C127.59 160.608 126.393 160.357 125.864 158.659L124.917 155.541L152.395 128.063L155.513 129.01C156.905 129.427 157.379 130.235 157.546 130.819C157.991 132.545 156.265 134.494 155.513 135.246L132.128 158.631C131.181 159.578 129.65 160.608 128.286 160.608H128.258ZM126.532 155.931L127.228 158.242C127.479 159.077 127.924 159.188 128.258 159.188C129.01 159.188 130.179 158.548 131.098 157.629L154.483 134.244C155.653 133.074 156.321 131.849 156.154 131.181C156.07 130.847 155.708 130.569 155.096 130.374L152.785 129.678L126.504 155.959L126.532 155.931Z" fill="#070707" stroke="#231F20" stroke-miterlimit="10"/>
<path fill-rule="evenodd" clip-rule="evenodd" d="M35.7185 54.0928L57.2109 32.6004C58.6864 31.1249 58.6864 28.7029 57.2109 27.2274L34.9668 4.95549L8.07355 31.8488L30.3454 54.1206C31.8209 55.5961 34.243 55.5961 35.7185 54.1206V54.0928Z" fill="white" stroke="#231F20" stroke-miterlimit="10"/>
<path d="M33.0459 55.9302C31.8488 55.9302 30.7073 55.457 29.8443 54.6218L7.07132 31.8488L34.9668 3.95326L57.7398 26.7262C58.6029 27.5614 59.0483 28.7029 59.0483 29.9C59.0483 31.0971 58.575 32.2385 57.7398 33.1016L36.2475 54.5939C35.4123 55.457 34.2708 55.9024 33.0737 55.9024L33.0459 55.9302ZM9.07579 31.8488L30.8465 53.6195C32.0158 54.7888 34.0481 54.7888 35.2174 53.6195L56.7097 32.1272C57.2944 31.5425 57.6006 30.763 57.6006 29.9557C57.6006 29.1483 57.2944 28.341 56.7097 27.7842L34.9668 5.95773L9.07579 31.8488Z" fill="#070707" stroke="#231F20" stroke-miterlimit="10"/>
<path fill-rule="evenodd" clip-rule="evenodd" d="M6.9878 27.2552L30.3733 3.86975C31.8488 2.39423 34.6328 0.918723 35.4401 3.56351L36.2753 6.26397L9.38203 33.1573L6.68156 32.3499C3.73054 31.459 5.51229 28.7586 6.9878 27.283V27.2552Z" fill="white" stroke="#231F20" stroke-miterlimit="10"/>
<path d="M9.5769 33.9368L6.45884 32.9902C5.06685 32.5726 4.59357 31.7653 4.42653 31.1806C4.00893 29.4546 5.70716 27.5058 6.45884 26.7541L29.8721 3.36863C30.8187 2.42207 32.3499 1.392 33.714 1.392C34.3822 1.392 35.5793 1.64256 36.1083 3.36863L37.0548 6.48669L9.5769 33.9368ZM33.7419 2.81183C32.9902 2.81183 31.8209 3.45215 30.9022 4.37086L7.48891 27.7563C6.31964 28.9256 5.65148 30.1505 5.81852 30.8187C5.90204 31.1528 6.26396 31.4312 6.87644 31.6261L9.18714 32.3221L35.4679 6.06909L34.772 3.75838C34.5214 2.92319 34.076 2.81183 33.7419 2.81183V2.81183Z" fill="#070707" stroke="#231F20" stroke-miterlimit="10"/>
</svg>
